<svg id="Layer_3" data-name="Layer 3" xmlns="http://www.w3.org/2000/svg" viewBox="0 0 300 300"><defs><style>.cls-1{font-size:29.48px;font-family:Gotham-Bold, Gotham;font-weight:700;}.cls-1,.cls-2{fill:#4d4d4d;}.cls-2{font-size:12.64px;font-family:Gotham-Medium, Gotham;font-weight:500;}.cls-3{fill:#8ec7c2;}.cls-4{fill:#fff;}.cls-5{fill:#efb670;}</style></defs><title>stat_1</title><text class="cls-1" transform="translate(58.69 215.6)">1 in 5 Adults</text><text class="cls-2" transform="translate(25.65 242.28)">in America experience a mental illness.</text><g id="EqYFwg.tif"><path class="cls-3" d="M40.88,172.66c-2.94-1.11-3.88-3.29-3.87-6.34.07-23.1,0-46.2,0-69.29V94.92h-3v1.36c0,7.46,0,14.92,0,22.38a4.79,4.79,0,0,1-3.27,4.72,4.64,4.64,0,0,1-5.42-1.56,6,6,0,0,1-1.11-3.13c-.09-9-.12-18,0-26.94A13.48,13.48,0,0,1,37.51,78.58q10.91-.09,21.81,0A13.53,13.53,0,0,1,72.61,92c0,8.86,0,17.73,0,26.6a4.91,4.91,0,0,1-4.21,5A4.86,4.86,0,0,1,63,120.12a7.61,7.61,0,0,1-.19-2q0-10.91,0-21.8V95h-3v1.73c0,23.21,0,46.43,0,69.64,0,3.05-.93,5.23-3.88,6.34H53.67c-2.92-1.14-3.84-3.33-3.82-6.37.1-12.55,0-25.11,0-37.66,0-.44,0-.88-.06-1.32H46.94v1.55q0,19.11,0,38.22a5.07,5.07,0,0,1-1.44,4.06,17.72,17.72,0,0,1-2.34,1.52Z"/><path class="cls-4" d="M43.17,172.66a17.72,17.72,0,0,0,2.34-1.52A5.07,5.07,0,0,0,47,167.08q0-19.11,0-38.22v-1.55h2.89c0,.44.06.88.06,1.32,0,12.55.06,25.11,0,37.66,0,3,.9,5.23,3.82,6.37Z"/></g><circle class="cls-3" cx="48.42" cy="65.33" r="10.28"/><g id="EqYFwg.tif-2" data-name="EqYFwg.tif"><path class="cls-3" d="M91.28,172.66c-3-1.11-3.88-3.29-3.87-6.34q.09-34.65,0-69.29V94.92h-3v1.36c0,7.46,0,14.92,0,22.38a4.79,4.79,0,0,1-3.27,4.72,4.63,4.63,0,0,1-5.42-1.56,6,6,0,0,1-1.12-3.13c-.08-9-.11-18,0-26.94A13.48,13.48,0,0,1,87.91,78.58q10.91-.09,21.81,0A13.53,13.53,0,0,1,123,92c0,8.86,0,17.73,0,26.6a4.91,4.91,0,0,1-4.21,5,4.86,4.86,0,0,1-5.45-3.48,7.61,7.61,0,0,1-.19-2q0-10.91,0-21.8V95h-3v1.73c0,23.21,0,46.43,0,69.64,0,3.05-.93,5.23-3.88,6.34h-2.28c-2.92-1.14-3.84-3.33-3.82-6.37.1-12.55,0-25.11,0-37.66,0-.44,0-.88-.06-1.32H97.34v1.55q0,19.11,0,38.22a5.07,5.07,0,0,1-1.44,4.06,18.4,18.4,0,0,1-2.34,1.52Z"/><path class="cls-4" d="M93.57,172.66a18.4,18.4,0,0,0,2.34-1.52,5.07,5.07,0,0,0,1.44-4.06q0-19.11,0-38.22v-1.55h2.89c0,.44.06.88.06,1.32,0,12.55.06,25.11,0,37.66,0,3,.9,5.23,3.82,6.37Z"/></g><circle class="cls-3" cx="98.82" cy="65.33" r="10.28"/><g id="EqYFwg.tif-3" data-name="EqYFwg.tif"><path class="cls-3" d="M192.08,172.66c-3-1.11-3.88-3.29-3.87-6.34.06-23.1,0-46.2,0-69.29V94.92h-3v1.36c0,7.46,0,14.92,0,22.38a4.78,4.78,0,0,1-3.28,4.72,4.62,4.62,0,0,1-5.41-1.56,6,6,0,0,1-1.12-3.13c-.08-9-.11-18,0-26.94a13.48,13.48,0,0,1,13.26-13.17q10.9-.09,21.8,0A13.52,13.52,0,0,1,223.8,92c0,8.86,0,17.73,0,26.6a4.92,4.92,0,0,1-4.21,5,4.85,4.85,0,0,1-5.45-3.48,7.61,7.61,0,0,1-.19-2c0-7.27,0-14.53,0-21.8V95h-3v1.73c0,23.21,0,46.43,0,69.64,0,3.05-.92,5.23-3.87,6.34h-2.28c-2.92-1.14-3.84-3.33-3.82-6.37.1-12.55,0-25.11,0-37.66,0-.44,0-.88-.05-1.32h-2.89v1.55q0,19.11,0,38.22a5.07,5.07,0,0,1-1.44,4.06,17.83,17.83,0,0,1-2.35,1.52Z"/><path class="cls-4" d="M194.36,172.66a17.83,17.83,0,0,0,2.35-1.52,5.07,5.07,0,0,0,1.44-4.06q0-19.11,0-38.22v-1.55H201c0,.44.05.88.05,1.32,0,12.55.07,25.11,0,37.66,0,3,.9,5.23,3.82,6.37Z"/></g><circle class="cls-3" cx="199.62" cy="65.33" r="10.28"/><g id="EqYFwg.tif-4" data-name="EqYFwg.tif"><path class="cls-3" d="M242.48,172.66c-2.95-1.11-3.88-3.29-3.87-6.34.06-23.1,0-46.2,0-69.29V94.92h-3v1.36q0,11.19,0,22.38a4.78,4.78,0,0,1-3.28,4.72,4.62,4.62,0,0,1-5.41-1.56,6,6,0,0,1-1.12-3.13c-.08-9-.11-18,0-26.94a13.48,13.48,0,0,1,13.26-13.17q10.9-.09,21.8,0A13.52,13.52,0,0,1,274.2,92c0,8.86,0,17.73,0,26.6a4.92,4.92,0,0,1-4.21,5,4.85,4.85,0,0,1-5.45-3.48,7.61,7.61,0,0,1-.19-2c0-7.27,0-14.53,0-21.8V95h-3v1.73c0,23.21,0,46.43,0,69.64,0,3.05-.92,5.23-3.87,6.34h-2.28c-2.92-1.14-3.84-3.33-3.82-6.37.1-12.55,0-25.11,0-37.66,0-.44,0-.88-.06-1.32h-2.88v1.55q0,19.11,0,38.22a5.07,5.07,0,0,1-1.44,4.06,17.83,17.83,0,0,1-2.35,1.52Z"/><path class="cls-4" d="M244.76,172.66a17.83,17.83,0,0,0,2.35-1.52,5.07,5.07,0,0,0,1.44-4.06q0-19.11,0-38.22v-1.55h2.88c0,.44.06.88.06,1.32,0,12.55.07,25.11,0,37.66,0,3,.9,5.23,3.82,6.37Z"/></g><circle class="cls-3" cx="250.01" cy="65.33" r="10.28"/><g id="EqYFwg.tif-5" data-name="EqYFwg.tif"><path class="cls-5" d="M141.68,172.66c-3-1.11-3.88-3.29-3.87-6.34q.09-34.65,0-69.29V94.92h-3v1.36c0,7.46,0,14.92,0,22.38a4.79,4.79,0,0,1-3.27,4.72,4.63,4.63,0,0,1-5.42-1.56,6,6,0,0,1-1.12-3.13c-.08-9-.11-18,0-26.94a13.48,13.48,0,0,1,13.26-13.17q10.91-.09,21.81,0A13.53,13.53,0,0,1,173.41,92c0,8.86,0,17.73,0,26.6a4.91,4.91,0,0,1-4.21,5,4.85,4.85,0,0,1-5.45-3.48,7.61,7.61,0,0,1-.19-2q0-10.91,0-21.8V95h-3v1.73c0,23.21,0,46.43,0,69.64,0,3.05-.92,5.23-3.87,6.34h-2.28c-2.92-1.14-3.84-3.33-3.82-6.37.1-12.55,0-25.11,0-37.66,0-.44,0-.88-.06-1.32h-2.89v1.55q0,19.11,0,38.22a5.07,5.07,0,0,1-1.44,4.06,17.83,17.83,0,0,1-2.35,1.52Z"/></g><circle class="cls-5" cx="149.22" cy="65.33" r="10.28"/></svg>