<svg id="Layer_1" data-name="Layer 1" xmlns="http://www.w3.org/2000/svg" viewBox="0 0 300 300"><defs><style>.cls-1{font-size:29.48px;font-family:Gotham-Bold, Gotham;font-weight:700;}.cls-1,.cls-2{fill:#4d4d4d;}.cls-2{font-size:12.64px;font-family:Gotham-Medium, Gotham;font-weight:500;}.cls-3{fill:#8ec7c2;}.cls-4{fill:#efb670;}</style></defs><title>stat_4</title><text class="cls-1" transform="translate(108.39 210.81)">18.1 %</text><text class="cls-2" transform="translate(81.18 237.07)">42 million of American<tspan x="-34.55" y="15.16">adults live with anxiety disorders.</tspan></text><path class="cls-3" d="M120.94,75.12c-.3,1.39-.52,2.47-.77,3.54s.11,2.12,1.25,2.39c3.25.76,4.83,2.74,5.31,6,.22,1.5.25,2.56-.82,3.73-2.41,2.61-2.35,2.66-.09,5.46.54.68,1.08,1.37,1.63,2,1,1.27,1.68,1.51,3.06.58,2.17-1.46,4.21-1.92,6.35-.08a.84.84,0,0,0,.39.15,3.61,3.61,0,0,1,3,3.84,8.33,8.33,0,0,0,.28,1.62,1.88,1.88,0,0,0,2,1.66c1.6,0,3.21,0,4.82,0,1.15,0,2-.56,2-1.67.06-3.21,1.8-4.72,4.7-5.82,1.89-.72,3.23-.81,4.93.22,2.93,1.78,3,1.7,5.16-.93.68-.81,1.35-1.63,2-2.44a1.81,1.81,0,0,0,0-2.51,16.77,16.77,0,0,1-1.89-2.35,4.1,4.1,0,0,1-.46-2.37A20.93,20.93,0,0,1,165,84a3.89,3.89,0,0,1,1.44-1.79A17.43,17.43,0,0,1,169.3,81a1.83,1.83,0,0,0,1.25-2.29c-.21-1-.38-2.07-.62-3.35a32,32,0,0,1,6.91,7.87c5.81,9.29,7.59,19.26,4.72,29.91-3,11-6,21.92-9,32.89a11.18,11.18,0,0,0-.36,2.7c0,6.57,0,13.13,0,19.7,0,3-1.06,4.05-4.06,4.05H138.28c-2.95,0-4.08-1.12-4.09-4.07,0-4.31,0-8.63,0-12.94,0-.5,0-1,0-1.69H119.64c-2.83,0-4.09-1.05-4.63-3.85s-1-5.41-1.49-8.25h7v-3.88c-2.17,0-4.32,0-6.46,0-1,0-1.41-.24-1.48-1.27a25.29,25.29,0,0,0-.52-3,2.52,2.52,0,0,0-2.36-2.3c-1.69-.18-3.38-.32-5.07-.48-2.16-.21-2.59-.82-2-2.87,1.51-5.19,3.06-10.37,4.52-15.57a14.25,14.25,0,0,0,.53-3.78c0-5.34,0-10.65,1.65-15.81A37.66,37.66,0,0,1,120.94,75.12Z"/><path class="cls-4" d="M134.07,73.58c-4.16,0-8.26.31-12.3-.07-6.79-.64-12.06-7.06-12-14.09S115.27,46.2,122,45.49a17.66,17.66,0,0,1,4.65.1c3.49.56,4.42.25,6.43-2.74a15.92,15.92,0,0,1,18.42-6.2,15.54,15.54,0,0,1,8,6.16c2.06,3,3,3.43,6.54,2.74a14.36,14.36,0,0,1,16.73,11.84,14,14,0,0,1-12.29,16.18c-4.1.38-8.25.17-12.38.22h-1.81a12.89,12.89,0,0,1,.67,11A12.3,12.3,0,0,1,151.71,91a12.62,12.62,0,0,1-15.13-1.84,12.3,12.3,0,0,1-2.4-14.7h9c1.93,0,2.4.58,2,2.43q-1,4.27-2.06,8.55c-.22.92-.24,1.8.81,2.19s1.61-.23,2.07-1.08c3-5.47,6-10.92,9-16.39.83-1.52.33-2.38-1.4-2.41s-3.58,0-5.37,0-2.24-.74-1.64-2.37q2.43-6.58,4.89-13.14c.65-1.77.15-2.49-1.75-2.5-2.16,0-4.32,0-6.47,0a1.92,1.92,0,0,0-2.11,1.54c-2.22,7-4.48,14-6.71,20.94C134.23,72.62,134.17,73.12,134.07,73.58Z"/></svg>