<?xml version="1.0" encoding="UTF-8"?>
<svg width="72px" height="71px" viewBox="0 0 72 71" version="1.1" xmlns="http://www.w3.org/2000/svg" xmlns:xlink="http://www.w3.org/1999/xlink">
    <!-- Generator: Sketch 47.1 (45422) - http://www.bohemiancoding.com/sketch -->
    <title>anxiety</title>
    <desc>Created with Sketch.</desc>
    <defs>
        <linearGradient x1="45.970281%" y1="60.0296438%" x2="46.6542723%" y2="60.0296438%" id="linearGradient-1">
            <stop stop-color="#80C3F3" offset="0%"></stop>
            <stop stop-color="#4A90E2" offset="100%"></stop>
        </linearGradient>
        <linearGradient x1="49.7918533%" y1="65.6976581%" x2="50.2491965%" y2="65.6976581%" id="linearGradient-2">
            <stop stop-color="#585858" offset="0%"></stop>
            <stop stop-color="#000000" offset="100%"></stop>
        </linearGradient>
    </defs>
    <g id="Page-1" stroke="none" stroke-width="1" fill="none" fill-rule="evenodd">
        <g id="Group">
            <path d="M13.4958259,71 C13.446023,71 22.5056363,71 40.6746659,71 C41.134044,70.9203363 41.3031911,70.6427108 41.1821073,70.1671236 C41.0610234,69.6915363 40.7047076,69.23401 40.1131599,68.7945446 L40.1131599,62.033891 C40.4048918,61.4952071 40.7612075,61.0643447 41.1821073,60.7413041 C41.603007,60.4182635 42.079334,60.2100722 42.6110883,60.1167303 C43.9912524,59.9125813 45.5509662,59.9125813 47.2902297,60.1167303 C49.8991248,60.4229538 51.0420713,61.2739665 52.4702536,61.2739665 C53.898436,61.2739665 54.3413506,61.1142761 55.2615525,60.1167303 C55.8750204,59.4516998 56.2385991,58.4346705 56.3522886,57.0656424 C56.1565173,55.5342635 56.2388165,54.5007069 56.5991862,53.9649728 C57.1397408,53.1613716 58.4950678,53.3021395 59.0053324,53.0326652 C59.5155971,52.7631909 60.3473222,52.2999662 60.4981586,51.4818532 C60.5987163,50.9364446 60.4596714,49.8244928 60.081024,48.1459979 C59.8810766,47.5020611 59.8810766,46.8780171 60.081024,46.2738658 C60.2809713,45.6697145 60.6583842,45.153386 61.2132625,44.7248805 L63.8599288,42.713982 C64.8955517,42.0693654 65.2256168,41.4037962 64.8501242,40.7172743 C64.4746317,40.0307523 62.8849316,38.1981938 60.081024,35.2195987 C59.6922118,34.7259018 59.4572907,34.2230427 59.3762606,33.7110213 C59.2952304,33.1989999 59.2952304,32.5466536 59.3762606,31.7539824 C59.7032915,28.5107654 59.9382126,25.5599766 60.081024,22.9016159 C60.295241,18.9140748 58.0067224,8.08433718 47.2902297,3.19443272 C36.5737369,-1.69547174 29.3087716,0.069251815 24.9584655,1.69210098 C20.6081593,3.31495015 15.2873078,6.81316781 12.9302943,10.8311724 C10.5732809,14.849177 9,18.409932 9,24.0500158 C9,27.8100717 10.2395642,32.3034324 12.7186926,37.5300978 L14.3520732,41.8022566 L15.0379012,43.8892018 L15.571467,47.0168384 L15.0379012,57.6038671 C14.0596539,66.5346224 13.5456288,71 13.4958259,71 Z" id="Path-20" fill="url(#linearGradient-1)"></path>
            <path d="M0.000567272271,21.9523048 C0.0259077172,20.1614374 0.84954868,18.7876485 2.47149016,17.8309384 L24.1822911,17.8309384 L33.0316932,3.95744353 C34.0573146,3.08693271 35.1974577,2.81002537 36.4521226,3.12672153 C37.7067874,3.44341768 38.5433754,4.25056475 38.9618866,5.54816271 L38.9618866,21.3864444 C39.1030144,21.7216106 39.2798993,21.9102307 39.492541,21.9523048 C39.7051828,21.9943789 39.9895315,21.8874551 40.3455871,21.6315335 L44.0412572,18.0004023 C44.1961423,17.8178237 44.3765174,17.6917415 44.5823823,17.6221559 C44.7882473,17.5525703 45.0928773,17.514713 45.4962723,17.5085841 L69.7928463,17.5085841 C71.2642821,18.9250653 72,20.3245073 72,21.70691 C72,23.0893128 71.2642821,24.4467992 69.7928463,25.7793692 L47.2094056,25.7793692 C42.4290548,34.7486663 39.6798818,39.5124521 38.9618866,40.0707266 C37.8848937,40.9081382 37.1146749,40.742821 35.4618362,40.5024375 C33.8089976,40.262054 33.0903044,40.0403727 32.6726153,38.817913 C32.3941559,38.0029398 32.0109015,32.8461592 31.5228521,23.347571 C31.428016,22.966989 31.2773282,22.776698 31.0707888,22.776698 C30.8642493,22.776698 30.6142218,22.966989 30.3207062,23.347571 L28.9291304,25.0258392 C28.3270057,25.6967135 27.8320084,26.064817 27.4441382,26.1301497 C27.0562681,26.1954825 26.5597398,26.2312807 25.9545535,26.2375445 L2.47149016,26.1301497 C0.798867791,25.1357872 -0.0247731726,23.7431723 0.000567272271,21.9523048 Z" id="Path-9" fill="url(#linearGradient-2)"></path>
        </g>
    </g>
</svg>