<?xml version="1.0" encoding="UTF-8"?>
<svg width="60px" height="60px" viewBox="0 0 60 60" version="1.1" xmlns="http://www.w3.org/2000/svg" xmlns:xlink="http://www.w3.org/1999/xlink">
    <!-- Generator: Sketch 47.1 (45422) - http://www.bohemiancoding.com/sketch -->
    <title>eating_disorder</title>
    <desc>Created with Sketch.</desc>
    <defs>
        <linearGradient x1="50%" y1="50%" x2="50%" y2="50%" id="linearGradient-1">
            <stop stop-color="#FFCCE7" offset="0%"></stop>
            <stop stop-color="#FF9DCB" offset="100%"></stop>
        </linearGradient>
    </defs>
    <g id="Page-1" stroke="none" stroke-width="1" fill="none" fill-rule="evenodd">
        <g id="Group-7">
            <path d="M2.13590976,2.33999132 C2.83825343,1.49746224 3.37780635,1.05225813 3.75456853,1.00437899 C4.13133071,0.95649986 4.68031876,1.30124715 5.40153268,2.03862085 L55.7369083,52.3313755 C56.1003212,52.7847583 56.2820276,53.1980238 56.2820276,53.571172 C56.2820276,53.9443202 56.1003212,54.3132147 55.7369083,54.6778554 L51.524512,59.0609228 C50.9441002,59.5465232 50.4608213,59.7893234 50.0746755,59.7893234 C49.6885297,59.7893234 49.2356174,59.5465232 48.7159386,59.0609228 L24.6574027,33.1956149 L24.2576898,32.8206006 L23.5537385,32.8206006 L22.7421605,32.8206006 C18.7015014,32.9491438 16.5189813,32.9491438 16.1946002,32.8206006 C15.8702192,32.6920574 15.2514157,32.2058124 14.3381897,31.3618656 L3.59032566,20.380327 C1.4563724,17.8630305 0.273950903,14.8394396 0.04306117,11.3095543 C-0.187828563,7.77966912 0.509787634,4.78981478 2.13590976,2.33999132 Z" id="Path-21" fill="url(#linearGradient-1)"></path>
            <path d="M1.2678752,54.4199338 C1.04642132,53.9453813 0.962275282,53.5277442 1.01543709,53.1670227 C1.06859889,52.8063011 1.26479235,52.4636569 1.60401746,52.1390902 L16.8400681,37 L23.3292235,37 L26.6641335,40.293058 L8.0128775,58.8678061 C7.50748353,59.1622226 7.06478575,59.3094308 6.68478414,59.3094308 C6.30478253,59.3094308 5.92975508,59.1622226 5.55970177,58.8678061 L1.2678752,54.4199338 Z" id="Path-22" fill="#75DEFC"></path>
            <path d="M30.7158932,21.6107871 L37.9657657,28.8500022 C39.0991068,29.5167702 40.3677422,29.8501542 41.771672,29.8501542 C43.1756018,29.8501542 44.456261,29.5167702 45.6136494,28.8500022 L59.6735734,14.6330871 C59.7300311,13.6836263 59.554218,13.026254 59.1461342,12.6609703 C58.7380504,12.2956866 58.0488412,12.1787609 57.0785068,12.3101931 L46.651922,22.8015418 C45.6804629,23.774484 44.694384,23.774484 43.6936855,22.8015418 C42.6929869,21.8285997 42.5034772,20.7616342 43.1251564,19.6006455 L53.8456384,8.80761149 C54.0399724,7.65590065 53.8773794,6.83473758 53.3578593,6.34412229 C52.8383393,5.85350699 51.9817883,5.71222869 50.7882065,5.92028737 L40.0726433,16.541164 C39.0136642,17.4915738 38.034417,17.4915738 37.1349017,16.541164 C36.2353863,15.5907543 36.2353863,14.4728248 37.1349017,13.1873756 L47.6184624,2.43246215 C47.7583988,1.46070095 47.6273369,0.780691785 47.2252765,0.392434646 C46.8232162,0.00417750774 46.1463685,-0.0959865552 45.1947333,0.0919424575 L31.7713815,13.1873756 C30.849325,14.1499435 30.2844851,15.4597054 30.0768616,17.1166613 C29.8692382,18.7736173 30.0822487,20.2716592 30.7158932,21.6107871 Z" id="Path-23" fill="#62C4E0"></path>
        </g>
    </g>
</svg>