<?xml version="1.0" encoding="UTF-8"?>
<svg width="73px" height="63px" viewBox="0 0 73 63" version="1.1" xmlns="http://www.w3.org/2000/svg" xmlns:xlink="http://www.w3.org/1999/xlink">
    <!-- Generator: Sketch 47.1 (45422) - http://www.bohemiancoding.com/sketch -->
    <title>intimacy</title>
    <desc>Created with Sketch.</desc>
    <defs>
        <linearGradient x1="66.3324988%" y1="100%" x2="66.7706898%" y2="100%" id="linearGradient-1">
            <stop stop-color="#FCEAD3" offset="0%"></stop>
            <stop stop-color="#F7D0A7" offset="100%"></stop>
        </linearGradient>
        <linearGradient x1="48.6730152%" y1="50%" x2="51.0110894%" y2="50%" id="linearGradient-2">
            <stop stop-color="#FF9883" stop-opacity="0.924790534" offset="0%"></stop>
            <stop stop-color="#F94D42" stop-opacity="0.885105299" offset="100%"></stop>
        </linearGradient>
    </defs>
    <g id="Page-1" stroke="none" stroke-width="1" fill="none" fill-rule="evenodd">
        <g id="Group-8">
            <path d="M21.0551201,33.5354406 C25.2879591,33.5354406 29.0207021,35.1072808 32.2533491,38.2509614 L38.8816674,38.2509614 C42.5025996,38.5817637 44.7416366,39.551832 45.5987782,41.1611663 C46.4559199,42.7705005 46.7344509,44.4470394 46.4343711,46.1907828 L30.3207284,46.1907828 C29.899702,46.7704848 29.6891889,47.5334188 29.6891889,48.4795848 C29.6891889,49.4257508 29.899702,50.1486498 30.3207284,50.6482816 L48.404162,50.6482816 L65.8487309,33.5354406 C67.6172914,32.7081552 69.2138544,32.8395211 70.6384202,33.9295383 C72.0629859,35.0195554 72.5206932,36.4600297 72.0115418,38.2509614 L49.940348,63 L1.42108547e-14,63 L1.42108547e-14,39.012714 L10.2860726,39.012714 C13.2325986,35.3611984 16.8222811,33.5354406 21.0551201,33.5354406 Z" id="Path-13" fill="url(#linearGradient-1)"></path>
            <path d="M47.9944174,34.2072945 C36.8354117,22.6275053 30.8462828,16.0743711 30.027031,14.5478919 C28.7981531,12.2581732 28.5240031,8.42703914 30.027031,5.18229488 C31.0290495,3.01913203 32.9534899,1.49428125 35.8003521,0.607742535 C38.8624268,-0.130290519 41.4052523,-0.130290519 43.4288284,0.607742535 C45.4524044,1.34577559 46.9742675,3.05428863 47.9944174,5.73328165 C48.9658021,3.12657895 50.5195506,1.41806592 52.655663,0.607742535 C54.7917754,-0.202580845 57.3739456,-0.202580845 60.4021737,0.607742535 C62.9498675,1.36476453 64.767789,2.88961531 65.8559383,5.18229488 C67.4881621,8.62131422 67.2396707,12.0752342 65.8559383,14.5478919 C64.9334499,16.1963304 58.9796097,22.7494646 47.9944174,34.2072945 Z" id="Path-14" fill="url(#linearGradient-2)"></path>
        </g>
    </g>
</svg>