<?xml version="1.0" encoding="UTF-8"?>
<svg width="55px" height="68px" viewBox="0 0 55 68" version="1.1" xmlns="http://www.w3.org/2000/svg" xmlns:xlink="http://www.w3.org/1999/xlink">
    <!-- Generator: Sketch 47.1 (45422) - http://www.bohemiancoding.com/sketch -->
    <title>OCD</title>
    <desc>Created with Sketch.</desc>
    <defs>
        <linearGradient x1="36.2892442%" y1="48.4419412%" x2="36.942732%" y2="48.9703872%" id="linearGradient-1">
            <stop stop-color="#FFE0BB" offset="0%"></stop>
            <stop stop-color="#FFBD86" offset="100%"></stop>
        </linearGradient>
        <linearGradient x1="48.9256128%" y1="58.5210503%" x2="51.2687078%" y2="60.8241205%" id="linearGradient-2">
            <stop stop-color="#A2D7FF" offset="0%"></stop>
            <stop stop-color="#69AEFF" offset="100%"></stop>
        </linearGradient>
        <linearGradient x1="28.8880972%" y1="76.9784987%" x2="30.756237%" y2="78.8072038%" id="linearGradient-3">
            <stop stop-color="#A2D7FF" offset="0%"></stop>
            <stop stop-color="#69AEFF" offset="100%"></stop>
        </linearGradient>
    </defs>
    <g id="Page-1" stroke="none" stroke-width="1" fill="none" fill-rule="evenodd">
        <g id="Group-4" transform="translate(0.000000, 2.000000)">
            <path d="M11.8214523,25.3578949 C13.2607267,25.2004525 14.4797106,25.4980333 15.4784041,26.2506375 C16.4770976,27.0032416 16.998832,28.0927876 17.0436072,29.5192755 L32.5549591,14.060128 C34.6729172,13.8383749 36.3085703,14.2299935 37.4619187,15.2349837 C38.615267,16.2399739 39.2847182,17.6344434 39.4702724,19.4183921 L28.3434606,30.9417545 C27.8810033,31.4490999 27.8810033,31.9389359 28.3434606,32.4112626 C29.0371465,33.1197527 31.4544224,32.1682115 32.8869913,34.0065755 C33.8420372,35.2321515 34.0572046,36.5222588 33.5324935,37.8768976 C33.4433553,38.289087 33.4307027,38.516119 33.4945359,38.5579937 C33.9094997,38.8302103 33.9455401,39.0598915 34.0886815,39.0476601 C35.4452416,38.931742 37.4413897,39.3861879 38.1961591,40.4056408 C39.9128092,42.7242878 38.4050393,44.7889445 38.4711849,45.3404673 C38.5373305,45.8919901 38.7717396,46.1884822 39.0573182,46.255131 C41.0141467,46.7118191 42.3676,47.446146 43.117678,48.4581117 C43.9772221,49.6177632 44.2087505,51.3636997 43.8122633,53.6959213 C41.4473827,55.9443405 39.0913502,58.1091095 36.7441657,60.1902284 C34.3969812,62.2713472 30.825889,63.9722718 26.0308893,65.2930023 C19.1885175,67.1607417 12.8836313,65.3278498 7.11623059,59.7943266 C1.34882991,54.2608035 -0.912896997,48.327131 0.331049875,41.9933094 C0.955774981,38.2557538 2.18292103,35.2649209 4.01248801,33.0208106 C5.842055,30.7767004 8.4450431,28.2223952 11.8214523,25.3578949 Z" id="Path-17" fill="url(#linearGradient-1)"></path>
            <path d="M28,12.3450462 C29.9667577,7.92319849 38.4714229,6.15826167 43.1057935,10.4985025 C47.7401642,14.8387434 46.2293083,22.4206248 42.6345098,25" id="Path-18" stroke="url(#linearGradient-2)" stroke-width="4"></path>
            <path d="M19,8.43450146 C22.7149867,-0.149085279 38.7793543,-3.57513911 47.5331656,4.85003432 C56.2869769,13.2752077 53.4331378,27.9929775 46.6429629,33" id="Path-18" stroke="url(#linearGradient-3)" stroke-width="4"></path>
        </g>
    </g>
</svg>