<?xml version="1.0" encoding="UTF-8"?>
<svg width="82px" height="95px" viewBox="0 0 82 95" version="1.1" xmlns="http://www.w3.org/2000/svg" xmlns:xlink="http://www.w3.org/1999/xlink">
    <!-- Generator: Sketch 47.1 (45422) - http://www.bohemiancoding.com/sketch -->
    <title>ptsd</title>
    <desc>Created with Sketch.</desc>
    <defs>
        <linearGradient x1="50%" y1="59.28936%" x2="50.4793293%" y2="59.28936%" id="linearGradient-1">
            <stop stop-color="#818181" offset="0%"></stop>
            <stop stop-color="#4A4A4A" offset="100%"></stop>
        </linearGradient>
        <linearGradient x1="49.1529942%" y1="46.9565213%" x2="50%" y2="46.9565213%" id="linearGradient-2">
            <stop stop-color="#818181" offset="0%"></stop>
            <stop stop-color="#4A4A4A" offset="100%"></stop>
        </linearGradient>
        <linearGradient x1="42.4934437%" y1="115.430236%" x2="43.6848314%" y2="115.430236%" id="linearGradient-3">
            <stop stop-color="#F89090" offset="0%"></stop>
            <stop stop-color="#FF3D3D" offset="100%"></stop>
        </linearGradient>
    </defs>
    <g id="Page-1" stroke="none" stroke-width="1" fill="none" fill-rule="evenodd">
        <g id="Group-3">
            <path d="M26.3886435,95 L57.4578658,95 L57.0605187,79.0006835 L79.3505806,65 C81.1168602,63.0173366 82,61.3162554 82,59.8967564 C82,58.4772574 81.6367776,57.087376 80.9103329,55.7271123 L64.7744697,35.2929459 C62.9222624,35.5736837 61.3266924,36.2813342 59.9877597,37.4158973 C58.648827,38.5504605 57.67308,40.0151658 57.0605187,41.8100133 L68.0901226,55.7271123 C68.7171994,56.3439683 69.0499942,57.0450282 69.0885069,57.8302922 C69.1270197,58.6155561 68.7942249,59.3043775 68.0901226,59.8967564 L58.2228641,65 L54.3624473,67.1622198 L28.5455307,67.1622198 L25.015185,65 L15.3331917,59.8967564 C14.4462743,59.2398164 13.9653111,58.550995 13.8903019,57.8302922 C13.8152928,57.1095894 14.0563933,56.4085294 14.6136034,55.7271123 L26.3886435,41.8100133 C26.125128,39.6477269 25.3538286,37.9973343 24.0747453,36.8588356 C22.795662,35.7203368 21.0166515,35.100725 18.7377136,35 L1.13454701,55.7271123 C0.378182338,57.1416112 1.15801891e-16,58.5314925 0,59.8967564 C0,61.2620202 0.378182338,62.6268097 1.13454701,63.9911249 L26.3886435,79.0006835 L26.3886435,95 Z" id="Path-12" fill="url(#linearGradient-1)"></path>
            <ellipse id="Oval-5" fill="url(#linearGradient-2)" cx="42" cy="50" rx="13" ry="12"></ellipse>
            <polygon id="Path-16" fill="url(#linearGradient-3)" points="41.8215875 24 43.0106543 22.3621817 51 11.3576722 41.8215875 11.3576722 41.8215875 0 35 12.5126602 41.8215875 12.5126602"></polygon>
            <polygon id="Path-16" fill="url(#linearGradient-3)" points="26.8215875 35 28.0106543 33.3621817 36 22.3576722 26.8215875 22.3576722 26.8215875 11 20 23.5126602 26.8215875 23.5126602"></polygon>
            <polygon id="Path-16" fill="url(#linearGradient-3)" points="57.8215875 35 59.0106543 33.3621817 67 22.3576722 57.8215875 22.3576722 57.8215875 11 51 23.5126602 57.8215875 23.5126602"></polygon>
        </g>
    </g>
</svg>